<mxfile host="app.diagrams.net" modified="2024-03-07T17:06:51.497Z" agent="Mozilla/5.0 (X11; Linux x86_64) AppleWebKit/537.36 (KHTML, like Gecko) Chrome/122.0.0.0 Safari/537.36" etag="9cZlJ_iY2zZ3N-2cvNcI" version="24.0.2" type="device">
  <diagram name="Page-1" id="W47icFEoAOuAypJAeF1-">
    <mxGraphModel dx="4573" dy="1889" grid="0" gridSize="10" guides="1" tooltips="1" connect="1" arrows="1" fold="1" page="0" pageScale="1" pageWidth="850" pageHeight="1100" math="0" shadow="0">
      <root>
        <mxCell id="0" />
        <mxCell id="1" parent="0" />
        <mxCell id="c7kN_f7Wii7WWQJMHPRF-80" value="" style="swimlane;startSize=0;movable=1;resizable=1;rotatable=1;deletable=1;editable=1;locked=0;connectable=1;fillColor=default;strokeColor=none;" vertex="1" parent="1">
          <mxGeometry x="-1622" y="-167" width="1085" height="1463" as="geometry" />
        </mxCell>
        <mxCell id="c7kN_f7Wii7WWQJMHPRF-4" value="CLR image" style="shape=parallelogram;perimeter=parallelogramPerimeter;whiteSpace=wrap;html=1;fixedSize=1;container=0;" vertex="1" parent="c7kN_f7Wii7WWQJMHPRF-80">
          <mxGeometry x="352.3602673634782" y="116" width="98.1443611300462" height="28.873239436619716" as="geometry" />
        </mxCell>
        <mxCell id="c7kN_f7Wii7WWQJMHPRF-5" value="BW Generator" style="rounded=0;whiteSpace=wrap;html=1;container=0;" vertex="1" parent="c7kN_f7Wii7WWQJMHPRF-80">
          <mxGeometry x="370.43949178217053" y="167.9718309859155" width="61.985912292660764" height="34.647887323943664" as="geometry" />
        </mxCell>
        <mxCell id="c7kN_f7Wii7WWQJMHPRF-6" style="edgeStyle=orthogonalEdgeStyle;rounded=0;orthogonalLoop=1;jettySize=auto;html=1;entryX=0.5;entryY=0;entryDx=0;entryDy=0;" edge="1" parent="c7kN_f7Wii7WWQJMHPRF-80" source="c7kN_f7Wii7WWQJMHPRF-4" target="c7kN_f7Wii7WWQJMHPRF-5">
          <mxGeometry relative="1" as="geometry" />
        </mxCell>
        <mxCell id="c7kN_f7Wii7WWQJMHPRF-7" style="edgeStyle=orthogonalEdgeStyle;rounded=0;orthogonalLoop=1;jettySize=auto;html=1;entryX=0.5;entryY=0;entryDx=0;entryDy=0;exitX=0.438;exitY=1;exitDx=0;exitDy=0;exitPerimeter=0;" edge="1" parent="c7kN_f7Wii7WWQJMHPRF-80">
          <mxGeometry relative="1" as="geometry">
            <mxPoint x="399.655518442778" y="318.11267605633805" as="sourcePoint" />
            <mxPoint x="399.6245254866317" y="346.9859154929577" as="targetPoint" />
          </mxGeometry>
        </mxCell>
        <mxCell id="c7kN_f7Wii7WWQJMHPRF-8" value="BW Discriminator" style="rounded=0;whiteSpace=wrap;html=1;container=0;" vertex="1" parent="c7kN_f7Wii7WWQJMHPRF-80">
          <mxGeometry x="367.858036809816" y="283.46000000000004" width="80.53343558282208" height="34.65" as="geometry" />
        </mxCell>
        <mxCell id="c7kN_f7Wii7WWQJMHPRF-9" value="Disc. output for fake&lt;br&gt;&amp;nbsp;BW image" style="shape=parallelogram;perimeter=parallelogramPerimeter;whiteSpace=wrap;html=1;fixedSize=1;container=0;" vertex="1" parent="c7kN_f7Wii7WWQJMHPRF-80">
          <mxGeometry x="324.77184049079733" y="346.99" width="171.16564417177912" height="39.01" as="geometry" />
        </mxCell>
        <mxCell id="c7kN_f7Wii7WWQJMHPRF-10" style="edgeStyle=orthogonalEdgeStyle;rounded=0;orthogonalLoop=1;jettySize=auto;html=1;entryX=0.5;entryY=0;entryDx=0;entryDy=0;" edge="1" parent="c7kN_f7Wii7WWQJMHPRF-80" target="c7kN_f7Wii7WWQJMHPRF-25">
          <mxGeometry relative="1" as="geometry">
            <mxPoint x="259.3696591683706" y="375.8591549295777" as="sourcePoint" />
          </mxGeometry>
        </mxCell>
        <mxCell id="c7kN_f7Wii7WWQJMHPRF-11" value="" style="swimlane;whiteSpace=wrap;html=1;container=0;swimlaneLine=0;fillColor=none;gradientColor=none;" vertex="1" parent="c7kN_f7Wii7WWQJMHPRF-80">
          <mxGeometry x="49" y="75" width="544" height="430" as="geometry" />
        </mxCell>
        <mxCell id="c7kN_f7Wii7WWQJMHPRF-12" value="Fake BW image" style="shape=parallelogram;perimeter=parallelogramPerimeter;whiteSpace=wrap;html=1;fixedSize=1;container=0;" vertex="1" parent="c7kN_f7Wii7WWQJMHPRF-11">
          <mxGeometry x="309.8098159509202" y="143.94" width="117.62883435582822" height="28.87" as="geometry" />
        </mxCell>
        <mxCell id="c7kN_f7Wii7WWQJMHPRF-13" value="CLR Generator" style="rounded=0;whiteSpace=wrap;html=1;container=0;" vertex="1" parent="c7kN_f7Wii7WWQJMHPRF-11">
          <mxGeometry x="137.7" y="94.79" width="82.3" height="34.65" as="geometry" />
        </mxCell>
        <mxCell id="c7kN_f7Wii7WWQJMHPRF-14" value="BW Discriminator" style="rounded=0;whiteSpace=wrap;html=1;container=0;" vertex="1" parent="c7kN_f7Wii7WWQJMHPRF-11">
          <mxGeometry x="135.12306748466267" y="210.28000000000003" width="80.53343558282208" height="34.65" as="geometry" />
        </mxCell>
        <mxCell id="c7kN_f7Wii7WWQJMHPRF-15" value="Fake CLR image" style="shape=parallelogram;perimeter=parallelogramPerimeter;whiteSpace=wrap;html=1;fixedSize=1;container=0;" vertex="1" parent="c7kN_f7Wii7WWQJMHPRF-11">
          <mxGeometry x="110" y="146.76" width="133.71" height="28.87" as="geometry" />
        </mxCell>
        <mxCell id="c7kN_f7Wii7WWQJMHPRF-16" style="edgeStyle=orthogonalEdgeStyle;rounded=0;orthogonalLoop=1;jettySize=auto;html=1;exitX=0.5;exitY=1;exitDx=0;exitDy=0;entryX=0.5;entryY=0;entryDx=0;entryDy=0;" edge="1" parent="c7kN_f7Wii7WWQJMHPRF-11" source="c7kN_f7Wii7WWQJMHPRF-15" target="c7kN_f7Wii7WWQJMHPRF-14">
          <mxGeometry relative="1" as="geometry" />
        </mxCell>
        <mxCell id="c7kN_f7Wii7WWQJMHPRF-17" style="edgeStyle=orthogonalEdgeStyle;rounded=0;orthogonalLoop=1;jettySize=auto;html=1;exitX=0.5;exitY=1;exitDx=0;exitDy=0;entryX=0.443;entryY=-0.067;entryDx=0;entryDy=0;entryPerimeter=0;" edge="1" parent="c7kN_f7Wii7WWQJMHPRF-11" source="c7kN_f7Wii7WWQJMHPRF-13" target="c7kN_f7Wii7WWQJMHPRF-15">
          <mxGeometry relative="1" as="geometry" />
        </mxCell>
        <mxCell id="c7kN_f7Wii7WWQJMHPRF-18" style="edgeStyle=orthogonalEdgeStyle;rounded=0;orthogonalLoop=1;jettySize=auto;html=1;exitX=0.5;exitY=1;exitDx=0;exitDy=0;entryX=0.432;entryY=0.065;entryDx=0;entryDy=0;entryPerimeter=0;" edge="1" parent="c7kN_f7Wii7WWQJMHPRF-11" source="c7kN_f7Wii7WWQJMHPRF-19" target="c7kN_f7Wii7WWQJMHPRF-13">
          <mxGeometry relative="1" as="geometry">
            <mxPoint x="175.36503067484682" y="92.00000000000023" as="targetPoint" />
          </mxGeometry>
        </mxCell>
        <mxCell id="c7kN_f7Wii7WWQJMHPRF-19" value="BW image" style="shape=parallelogram;perimeter=parallelogramPerimeter;whiteSpace=wrap;html=1;fixedSize=1;container=0;" vertex="1" parent="c7kN_f7Wii7WWQJMHPRF-11">
          <mxGeometry x="126.31529803832495" y="42" width="98.1443611300462" height="28.873239436619716" as="geometry" />
        </mxCell>
        <mxCell id="c7kN_f7Wii7WWQJMHPRF-20" value="BCE with logits" style="rounded=0;whiteSpace=wrap;html=1;container=0;" vertex="1" parent="c7kN_f7Wii7WWQJMHPRF-11">
          <mxGeometry x="313.63" y="363" width="110" height="57" as="geometry" />
        </mxCell>
        <mxCell id="c7kN_f7Wii7WWQJMHPRF-21" value="ones" style="shape=parallelogram;perimeter=parallelogramPerimeter;whiteSpace=wrap;html=1;fixedSize=1;container=0;" vertex="1" parent="c7kN_f7Wii7WWQJMHPRF-11">
          <mxGeometry x="453.8695114746648" y="261.00126760563376" width="77.48239036582595" height="31.760563380281692" as="geometry" />
        </mxCell>
        <mxCell id="c7kN_f7Wii7WWQJMHPRF-22" style="edgeStyle=orthogonalEdgeStyle;rounded=0;orthogonalLoop=1;jettySize=auto;html=1;exitX=0.5;exitY=1;exitDx=0;exitDy=0;" edge="1" parent="c7kN_f7Wii7WWQJMHPRF-11" source="c7kN_f7Wii7WWQJMHPRF-21">
          <mxGeometry relative="1" as="geometry">
            <mxPoint x="413.8650306748468" y="363" as="targetPoint" />
          </mxGeometry>
        </mxCell>
        <mxCell id="c7kN_f7Wii7WWQJMHPRF-23" value="Disc. output for&lt;br&gt;&amp;nbsp;fake CLR image" style="shape=parallelogram;perimeter=parallelogramPerimeter;whiteSpace=wrap;html=1;fixedSize=1;container=0;" vertex="1" parent="c7kN_f7Wii7WWQJMHPRF-80">
          <mxGeometry x="148.31907975460126" y="344.1" width="171.16564417177912" height="39.01" as="geometry" />
        </mxCell>
        <mxCell id="c7kN_f7Wii7WWQJMHPRF-24" value="ones" style="shape=parallelogram;perimeter=parallelogramPerimeter;whiteSpace=wrap;html=1;fixedSize=1;container=0;" vertex="1" parent="c7kN_f7Wii7WWQJMHPRF-80">
          <mxGeometry x="58.51417177914118" y="335.9985915492957" width="77.48239036582595" height="31.760563380281692" as="geometry" />
        </mxCell>
        <mxCell id="c7kN_f7Wii7WWQJMHPRF-25" value="BCE with logits" style="rounded=0;whiteSpace=wrap;html=1;container=0;" vertex="1" parent="c7kN_f7Wii7WWQJMHPRF-80">
          <mxGeometry x="172.6300000000001" y="446" width="80.24" height="42" as="geometry" />
        </mxCell>
        <mxCell id="c7kN_f7Wii7WWQJMHPRF-26" style="edgeStyle=orthogonalEdgeStyle;rounded=0;orthogonalLoop=1;jettySize=auto;html=1;exitX=0.5;exitY=1;exitDx=0;exitDy=0;entryX=0.161;entryY=0.073;entryDx=0;entryDy=0;entryPerimeter=0;" edge="1" parent="c7kN_f7Wii7WWQJMHPRF-80" source="c7kN_f7Wii7WWQJMHPRF-24" target="c7kN_f7Wii7WWQJMHPRF-25">
          <mxGeometry relative="1" as="geometry" />
        </mxCell>
        <mxCell id="c7kN_f7Wii7WWQJMHPRF-27" style="edgeStyle=orthogonalEdgeStyle;rounded=0;orthogonalLoop=1;jettySize=auto;html=1;exitX=0.5;exitY=1;exitDx=0;exitDy=0;entryX=0.5;entryY=0;entryDx=0;entryDy=0;" edge="1" parent="c7kN_f7Wii7WWQJMHPRF-80" source="c7kN_f7Wii7WWQJMHPRF-12" target="c7kN_f7Wii7WWQJMHPRF-8">
          <mxGeometry relative="1" as="geometry" />
        </mxCell>
        <mxCell id="c7kN_f7Wii7WWQJMHPRF-28" style="edgeStyle=orthogonalEdgeStyle;rounded=0;orthogonalLoop=1;jettySize=auto;html=1;exitX=0.5;exitY=1;exitDx=0;exitDy=0;entryX=0.443;entryY=-0.067;entryDx=0;entryDy=0;entryPerimeter=0;" edge="1" parent="c7kN_f7Wii7WWQJMHPRF-80" source="c7kN_f7Wii7WWQJMHPRF-5" target="c7kN_f7Wii7WWQJMHPRF-12">
          <mxGeometry relative="1" as="geometry" />
        </mxCell>
        <mxCell id="c7kN_f7Wii7WWQJMHPRF-29" style="edgeStyle=orthogonalEdgeStyle;rounded=0;orthogonalLoop=1;jettySize=auto;html=1;exitX=0.5;exitY=1;exitDx=0;exitDy=0;entryX=0.449;entryY=0.049;entryDx=0;entryDy=0;entryPerimeter=0;" edge="1" parent="c7kN_f7Wii7WWQJMHPRF-80" source="c7kN_f7Wii7WWQJMHPRF-14" target="c7kN_f7Wii7WWQJMHPRF-23">
          <mxGeometry relative="1" as="geometry" />
        </mxCell>
        <mxCell id="c7kN_f7Wii7WWQJMHPRF-55" style="edgeStyle=orthogonalEdgeStyle;rounded=0;orthogonalLoop=1;jettySize=auto;html=1;exitX=0.5;exitY=1;exitDx=0;exitDy=0;entryX=0.435;entryY=0.039;entryDx=0;entryDy=0;entryPerimeter=0;" edge="1" parent="c7kN_f7Wii7WWQJMHPRF-80" source="c7kN_f7Wii7WWQJMHPRF-9" target="c7kN_f7Wii7WWQJMHPRF-20">
          <mxGeometry relative="1" as="geometry" />
        </mxCell>
        <mxCell id="c7kN_f7Wii7WWQJMHPRF-1" style="edgeStyle=orthogonalEdgeStyle;rounded=0;orthogonalLoop=1;jettySize=auto;html=1;entryX=1;entryY=0.5;entryDx=0;entryDy=0;" edge="1" parent="c7kN_f7Wii7WWQJMHPRF-80" source="c7kN_f7Wii7WWQJMHPRF-2" target="c7kN_f7Wii7WWQJMHPRF-3">
          <mxGeometry relative="1" as="geometry" />
        </mxCell>
        <mxCell id="c7kN_f7Wii7WWQJMHPRF-2" value="&lt;font style=&quot;font-size: 30px;&quot;&gt;+&lt;/font&gt;" style="rounded=0;whiteSpace=wrap;html=1;container=0;" vertex="1" parent="c7kN_f7Wii7WWQJMHPRF-80">
          <mxGeometry x="249.9999999999999" y="811" width="120" height="60" as="geometry" />
        </mxCell>
        <mxCell id="c7kN_f7Wii7WWQJMHPRF-3" value="Adam Optimizer" style="rounded=0;whiteSpace=wrap;html=1;" vertex="1" parent="c7kN_f7Wii7WWQJMHPRF-80">
          <mxGeometry x="42" y="697" width="120" height="60" as="geometry" />
        </mxCell>
        <mxCell id="c7kN_f7Wii7WWQJMHPRF-72" style="edgeStyle=orthogonalEdgeStyle;rounded=0;orthogonalLoop=1;jettySize=auto;html=1;exitX=0.5;exitY=1;exitDx=0;exitDy=0;entryX=0.167;entryY=0;entryDx=0;entryDy=0;entryPerimeter=0;" edge="1" parent="c7kN_f7Wii7WWQJMHPRF-80" source="c7kN_f7Wii7WWQJMHPRF-25" target="c7kN_f7Wii7WWQJMHPRF-2">
          <mxGeometry relative="1" as="geometry" />
        </mxCell>
        <mxCell id="c7kN_f7Wii7WWQJMHPRF-73" style="edgeStyle=orthogonalEdgeStyle;rounded=0;orthogonalLoop=1;jettySize=auto;html=1;entryX=0.58;entryY=-0.016;entryDx=0;entryDy=0;entryPerimeter=0;" edge="1" parent="c7kN_f7Wii7WWQJMHPRF-80" source="c7kN_f7Wii7WWQJMHPRF-20" target="c7kN_f7Wii7WWQJMHPRF-2">
          <mxGeometry relative="1" as="geometry" />
        </mxCell>
        <mxCell id="c7kN_f7Wii7WWQJMHPRF-69" value="" style="swimlane;startSize=0;" vertex="1" parent="c7kN_f7Wii7WWQJMHPRF-80">
          <mxGeometry x="144" y="1011" width="421" height="360" as="geometry" />
        </mxCell>
        <mxCell id="c7kN_f7Wii7WWQJMHPRF-56" style="edgeStyle=orthogonalEdgeStyle;rounded=0;orthogonalLoop=1;jettySize=auto;html=1;exitX=0.5;exitY=1;exitDx=0;exitDy=0;entryX=0.5;entryY=0;entryDx=0;entryDy=0;" edge="1" parent="c7kN_f7Wii7WWQJMHPRF-69" source="c7kN_f7Wii7WWQJMHPRF-57" target="c7kN_f7Wii7WWQJMHPRF-66">
          <mxGeometry relative="1" as="geometry" />
        </mxCell>
        <mxCell id="c7kN_f7Wii7WWQJMHPRF-57" value="BW Generator" style="rounded=0;whiteSpace=wrap;html=1;container=0;" vertex="1" parent="c7kN_f7Wii7WWQJMHPRF-69">
          <mxGeometry x="88.59803680981582" y="108.04999999999995" width="80.53343558282208" height="34.65" as="geometry" />
        </mxCell>
        <mxCell id="c7kN_f7Wii7WWQJMHPRF-58" style="edgeStyle=orthogonalEdgeStyle;rounded=0;orthogonalLoop=1;jettySize=auto;html=1;exitX=0.5;exitY=1;exitDx=0;exitDy=0;" edge="1" parent="c7kN_f7Wii7WWQJMHPRF-69" source="c7kN_f7Wii7WWQJMHPRF-59" target="c7kN_f7Wii7WWQJMHPRF-67">
          <mxGeometry relative="1" as="geometry" />
        </mxCell>
        <mxCell id="c7kN_f7Wii7WWQJMHPRF-59" value="CLR Generator" style="rounded=0;whiteSpace=wrap;html=1;container=0;" vertex="1" parent="c7kN_f7Wii7WWQJMHPRF-69">
          <mxGeometry x="257.9980368098158" y="104.04999999999995" width="80.53343558282208" height="34.65" as="geometry" />
        </mxCell>
        <mxCell id="c7kN_f7Wii7WWQJMHPRF-60" style="edgeStyle=orthogonalEdgeStyle;rounded=0;orthogonalLoop=1;jettySize=auto;html=1;exitX=0.5;exitY=1;exitDx=0;exitDy=0;entryX=0.5;entryY=0;entryDx=0;entryDy=0;" edge="1" parent="c7kN_f7Wii7WWQJMHPRF-69" source="c7kN_f7Wii7WWQJMHPRF-62" target="c7kN_f7Wii7WWQJMHPRF-57">
          <mxGeometry relative="1" as="geometry" />
        </mxCell>
        <mxCell id="c7kN_f7Wii7WWQJMHPRF-61" style="edgeStyle=orthogonalEdgeStyle;rounded=0;orthogonalLoop=1;jettySize=auto;html=1;entryX=0;entryY=0.5;entryDx=0;entryDy=0;" edge="1" parent="c7kN_f7Wii7WWQJMHPRF-69" source="c7kN_f7Wii7WWQJMHPRF-62" target="c7kN_f7Wii7WWQJMHPRF-70">
          <mxGeometry relative="1" as="geometry">
            <Array as="points">
              <mxPoint x="31.99999999999983" y="54" />
              <mxPoint x="31.99999999999983" y="281" />
            </Array>
          </mxGeometry>
        </mxCell>
        <mxCell id="c7kN_f7Wii7WWQJMHPRF-62" value="BW image" style="shape=parallelogram;perimeter=parallelogramPerimeter;whiteSpace=wrap;html=1;fixedSize=1;container=0;" vertex="1" parent="c7kN_f7Wii7WWQJMHPRF-69">
          <mxGeometry x="62.00496932515313" y="40" width="133.71" height="28.87" as="geometry" />
        </mxCell>
        <mxCell id="c7kN_f7Wii7WWQJMHPRF-63" style="edgeStyle=orthogonalEdgeStyle;rounded=0;orthogonalLoop=1;jettySize=auto;html=1;exitX=0.5;exitY=1;exitDx=0;exitDy=0;entryX=0.5;entryY=0;entryDx=0;entryDy=0;" edge="1" parent="c7kN_f7Wii7WWQJMHPRF-69" source="c7kN_f7Wii7WWQJMHPRF-65" target="c7kN_f7Wii7WWQJMHPRF-59">
          <mxGeometry relative="1" as="geometry" />
        </mxCell>
        <mxCell id="c7kN_f7Wii7WWQJMHPRF-64" style="edgeStyle=orthogonalEdgeStyle;rounded=0;orthogonalLoop=1;jettySize=auto;html=1;entryX=1;entryY=0.5;entryDx=0;entryDy=0;" edge="1" parent="c7kN_f7Wii7WWQJMHPRF-69" source="c7kN_f7Wii7WWQJMHPRF-65" target="c7kN_f7Wii7WWQJMHPRF-71">
          <mxGeometry relative="1" as="geometry">
            <Array as="points">
              <mxPoint x="391.4" y="50" />
              <mxPoint x="391.4" y="281" />
            </Array>
          </mxGeometry>
        </mxCell>
        <mxCell id="c7kN_f7Wii7WWQJMHPRF-65" value="CLR image" style="shape=parallelogram;perimeter=parallelogramPerimeter;whiteSpace=wrap;html=1;fixedSize=1;container=0;" vertex="1" parent="c7kN_f7Wii7WWQJMHPRF-69">
          <mxGeometry x="238.0047852760733" y="36" width="117.62883435582822" height="28.87" as="geometry" />
        </mxCell>
        <mxCell id="c7kN_f7Wii7WWQJMHPRF-66" value="gen. BW image" style="shape=parallelogram;perimeter=parallelogramPerimeter;whiteSpace=wrap;html=1;fixedSize=1;container=0;" vertex="1" parent="c7kN_f7Wii7WWQJMHPRF-69">
          <mxGeometry x="63.92496932515297" y="171.1300000000001" width="133.71" height="28.87" as="geometry" />
        </mxCell>
        <mxCell id="c7kN_f7Wii7WWQJMHPRF-67" value="gwn. CLR image" style="shape=parallelogram;perimeter=parallelogramPerimeter;whiteSpace=wrap;html=1;fixedSize=1;container=0;" vertex="1" parent="c7kN_f7Wii7WWQJMHPRF-69">
          <mxGeometry x="231.40496932515313" y="171.1300000000001" width="133.71" height="28.87" as="geometry" />
        </mxCell>
        <mxCell id="c7kN_f7Wii7WWQJMHPRF-68" style="edgeStyle=orthogonalEdgeStyle;rounded=0;orthogonalLoop=1;jettySize=auto;html=1;exitX=0.5;exitY=1;exitDx=0;exitDy=0;" edge="1" parent="c7kN_f7Wii7WWQJMHPRF-69" source="c7kN_f7Wii7WWQJMHPRF-67">
          <mxGeometry relative="1" as="geometry">
            <mxPoint x="281.39999999999986" y="261" as="targetPoint" />
            <Array as="points">
              <mxPoint x="281.39999999999986" y="200" />
            </Array>
          </mxGeometry>
        </mxCell>
        <mxCell id="c7kN_f7Wii7WWQJMHPRF-70" value="L1 loss" style="rounded=0;whiteSpace=wrap;html=1;container=0;" vertex="1" parent="c7kN_f7Wii7WWQJMHPRF-69">
          <mxGeometry x="73.08" y="262.95" width="96.63" height="37" as="geometry" />
        </mxCell>
        <mxCell id="c7kN_f7Wii7WWQJMHPRF-71" value="L1 loss" style="rounded=0;whiteSpace=wrap;html=1;container=0;" vertex="1" parent="c7kN_f7Wii7WWQJMHPRF-69">
          <mxGeometry x="203.00000000000009" y="262.95" width="96.63" height="37" as="geometry" />
        </mxCell>
        <mxCell id="c7kN_f7Wii7WWQJMHPRF-78" style="edgeStyle=orthogonalEdgeStyle;rounded=0;orthogonalLoop=1;jettySize=auto;html=1;entryX=0.337;entryY=0.007;entryDx=0;entryDy=0;entryPerimeter=0;" edge="1" parent="c7kN_f7Wii7WWQJMHPRF-69" source="c7kN_f7Wii7WWQJMHPRF-66" target="c7kN_f7Wii7WWQJMHPRF-70">
          <mxGeometry relative="1" as="geometry" />
        </mxCell>
        <mxCell id="c7kN_f7Wii7WWQJMHPRF-81" style="edgeStyle=orthogonalEdgeStyle;rounded=0;orthogonalLoop=1;jettySize=auto;html=1;" edge="1" parent="c7kN_f7Wii7WWQJMHPRF-80" source="c7kN_f7Wii7WWQJMHPRF-70" target="c7kN_f7Wii7WWQJMHPRF-2">
          <mxGeometry relative="1" as="geometry">
            <Array as="points">
              <mxPoint x="278" y="1335" />
              <mxPoint x="100" y="1335" />
              <mxPoint x="100" y="993" />
              <mxPoint x="310" y="993" />
            </Array>
          </mxGeometry>
        </mxCell>
        <mxCell id="c7kN_f7Wii7WWQJMHPRF-30" value="" style="swimlane;startSize=0;" vertex="1" parent="c7kN_f7Wii7WWQJMHPRF-80">
          <mxGeometry x="535" y="520.5" width="490" height="396.5" as="geometry">
            <mxRectangle x="-760" y="-13" width="50" height="40" as="alternateBounds" />
          </mxGeometry>
        </mxCell>
        <mxCell id="c7kN_f7Wii7WWQJMHPRF-31" style="edgeStyle=orthogonalEdgeStyle;rounded=0;orthogonalLoop=1;jettySize=auto;html=1;exitX=0.5;exitY=1;exitDx=0;exitDy=0;entryX=0.5;entryY=0;entryDx=0;entryDy=0;" edge="1" parent="c7kN_f7Wii7WWQJMHPRF-30" source="c7kN_f7Wii7WWQJMHPRF-32" target="c7kN_f7Wii7WWQJMHPRF-50">
          <mxGeometry relative="1" as="geometry" />
        </mxCell>
        <mxCell id="c7kN_f7Wii7WWQJMHPRF-32" value="BW Generator" style="rounded=0;whiteSpace=wrap;html=1;container=0;" vertex="1" parent="c7kN_f7Wii7WWQJMHPRF-30">
          <mxGeometry x="88.59803680981588" y="215.54999999999995" width="80.53343558282208" height="34.65" as="geometry" />
        </mxCell>
        <mxCell id="c7kN_f7Wii7WWQJMHPRF-33" style="edgeStyle=orthogonalEdgeStyle;rounded=0;orthogonalLoop=1;jettySize=auto;html=1;exitX=0.5;exitY=1;exitDx=0;exitDy=0;" edge="1" parent="c7kN_f7Wii7WWQJMHPRF-30" source="c7kN_f7Wii7WWQJMHPRF-34" target="c7kN_f7Wii7WWQJMHPRF-51">
          <mxGeometry relative="1" as="geometry" />
        </mxCell>
        <mxCell id="c7kN_f7Wii7WWQJMHPRF-34" value="CLR Generator" style="rounded=0;whiteSpace=wrap;html=1;container=0;" vertex="1" parent="c7kN_f7Wii7WWQJMHPRF-30">
          <mxGeometry x="298.5980368098159" y="211.54999999999995" width="80.53343558282208" height="34.65" as="geometry" />
        </mxCell>
        <mxCell id="c7kN_f7Wii7WWQJMHPRF-35" style="edgeStyle=orthogonalEdgeStyle;rounded=0;orthogonalLoop=1;jettySize=auto;html=1;exitX=0.5;exitY=1;exitDx=0;exitDy=0;entryX=0.5;entryY=0;entryDx=0;entryDy=0;" edge="1" parent="c7kN_f7Wii7WWQJMHPRF-30" source="c7kN_f7Wii7WWQJMHPRF-36" target="c7kN_f7Wii7WWQJMHPRF-32">
          <mxGeometry relative="1" as="geometry" />
        </mxCell>
        <mxCell id="c7kN_f7Wii7WWQJMHPRF-36" value="Fake CLR image" style="shape=parallelogram;perimeter=parallelogramPerimeter;whiteSpace=wrap;html=1;fixedSize=1;container=0;" vertex="1" parent="c7kN_f7Wii7WWQJMHPRF-30">
          <mxGeometry x="62.00496932515318" y="147.5" width="133.71" height="28.87" as="geometry" />
        </mxCell>
        <mxCell id="c7kN_f7Wii7WWQJMHPRF-37" style="edgeStyle=orthogonalEdgeStyle;rounded=0;orthogonalLoop=1;jettySize=auto;html=1;exitX=0.5;exitY=1;exitDx=0;exitDy=0;entryX=0.5;entryY=0;entryDx=0;entryDy=0;" edge="1" parent="c7kN_f7Wii7WWQJMHPRF-30" source="c7kN_f7Wii7WWQJMHPRF-38" target="c7kN_f7Wii7WWQJMHPRF-34">
          <mxGeometry relative="1" as="geometry" />
        </mxCell>
        <mxCell id="c7kN_f7Wii7WWQJMHPRF-38" value="Fake BW image" style="shape=parallelogram;perimeter=parallelogramPerimeter;whiteSpace=wrap;html=1;fixedSize=1;container=0;" vertex="1" parent="c7kN_f7Wii7WWQJMHPRF-30">
          <mxGeometry x="278.60478527607336" y="143.5" width="117.62883435582822" height="28.87" as="geometry" />
        </mxCell>
        <mxCell id="c7kN_f7Wii7WWQJMHPRF-39" value="L1 loss" style="rounded=0;whiteSpace=wrap;html=1;container=0;" vertex="1" parent="c7kN_f7Wii7WWQJMHPRF-30">
          <mxGeometry x="103.95000000000005" y="343.5" width="96.63" height="37" as="geometry" />
        </mxCell>
        <mxCell id="c7kN_f7Wii7WWQJMHPRF-40" style="edgeStyle=orthogonalEdgeStyle;rounded=0;orthogonalLoop=1;jettySize=auto;html=1;entryX=1;entryY=0.5;entryDx=0;entryDy=0;" edge="1" parent="c7kN_f7Wii7WWQJMHPRF-30" source="c7kN_f7Wii7WWQJMHPRF-41" target="c7kN_f7Wii7WWQJMHPRF-52">
          <mxGeometry relative="1" as="geometry">
            <Array as="points">
              <mxPoint x="442" y="28.5" />
              <mxPoint x="442" y="362.5" />
            </Array>
          </mxGeometry>
        </mxCell>
        <mxCell id="c7kN_f7Wii7WWQJMHPRF-41" value="CLR image" style="shape=parallelogram;perimeter=parallelogramPerimeter;whiteSpace=wrap;html=1;fixedSize=1;container=0;" vertex="1" parent="c7kN_f7Wii7WWQJMHPRF-30">
          <mxGeometry x="280.9902673634781" y="13.5" width="98.1443611300462" height="28.873239436619716" as="geometry" />
        </mxCell>
        <mxCell id="c7kN_f7Wii7WWQJMHPRF-42" value="BW Generator" style="rounded=0;whiteSpace=wrap;html=1;container=0;" vertex="1" parent="c7kN_f7Wii7WWQJMHPRF-30">
          <mxGeometry x="280" y="65.47000000000003" width="100" height="34.65" as="geometry" />
        </mxCell>
        <mxCell id="c7kN_f7Wii7WWQJMHPRF-43" style="edgeStyle=orthogonalEdgeStyle;rounded=0;orthogonalLoop=1;jettySize=auto;html=1;entryX=0.5;entryY=0;entryDx=0;entryDy=0;" edge="1" parent="c7kN_f7Wii7WWQJMHPRF-30" source="c7kN_f7Wii7WWQJMHPRF-41" target="c7kN_f7Wii7WWQJMHPRF-42">
          <mxGeometry relative="1" as="geometry" />
        </mxCell>
        <mxCell id="c7kN_f7Wii7WWQJMHPRF-44" value="CLR Generator" style="rounded=0;whiteSpace=wrap;html=1;container=0;" vertex="1" parent="c7kN_f7Wii7WWQJMHPRF-30">
          <mxGeometry x="115.33496932515322" y="67.28999999999996" width="82.3" height="34.65" as="geometry" />
        </mxCell>
        <mxCell id="c7kN_f7Wii7WWQJMHPRF-45" style="edgeStyle=orthogonalEdgeStyle;rounded=0;orthogonalLoop=1;jettySize=auto;html=1;exitX=0.5;exitY=1;exitDx=0;exitDy=0;entryX=0.432;entryY=0.065;entryDx=0;entryDy=0;entryPerimeter=0;" edge="1" parent="c7kN_f7Wii7WWQJMHPRF-30" source="c7kN_f7Wii7WWQJMHPRF-47" target="c7kN_f7Wii7WWQJMHPRF-44">
          <mxGeometry relative="1" as="geometry">
            <mxPoint x="153" y="64.50000000000023" as="targetPoint" />
          </mxGeometry>
        </mxCell>
        <mxCell id="c7kN_f7Wii7WWQJMHPRF-46" style="edgeStyle=orthogonalEdgeStyle;rounded=0;orthogonalLoop=1;jettySize=auto;html=1;" edge="1" parent="c7kN_f7Wii7WWQJMHPRF-30" source="c7kN_f7Wii7WWQJMHPRF-47" target="c7kN_f7Wii7WWQJMHPRF-39">
          <mxGeometry relative="1" as="geometry">
            <Array as="points">
              <mxPoint x="42" y="29.5" />
              <mxPoint x="42" y="362.5" />
            </Array>
          </mxGeometry>
        </mxCell>
        <mxCell id="c7kN_f7Wii7WWQJMHPRF-47" value="BW image" style="shape=parallelogram;perimeter=parallelogramPerimeter;whiteSpace=wrap;html=1;fixedSize=1;container=0;" vertex="1" parent="c7kN_f7Wii7WWQJMHPRF-30">
          <mxGeometry x="103.95026736347813" y="14.5" width="98.1443611300462" height="28.873239436619716" as="geometry" />
        </mxCell>
        <mxCell id="c7kN_f7Wii7WWQJMHPRF-48" style="edgeStyle=orthogonalEdgeStyle;rounded=0;orthogonalLoop=1;jettySize=auto;html=1;exitX=0.5;exitY=1;exitDx=0;exitDy=0;entryX=0.598;entryY=0.208;entryDx=0;entryDy=0;entryPerimeter=0;" edge="1" parent="c7kN_f7Wii7WWQJMHPRF-30" source="c7kN_f7Wii7WWQJMHPRF-44" target="c7kN_f7Wii7WWQJMHPRF-36">
          <mxGeometry relative="1" as="geometry" />
        </mxCell>
        <mxCell id="c7kN_f7Wii7WWQJMHPRF-49" style="edgeStyle=orthogonalEdgeStyle;rounded=0;orthogonalLoop=1;jettySize=auto;html=1;exitX=0.5;exitY=1;exitDx=0;exitDy=0;entryX=0.573;entryY=-0.019;entryDx=0;entryDy=0;entryPerimeter=0;" edge="1" parent="c7kN_f7Wii7WWQJMHPRF-30" source="c7kN_f7Wii7WWQJMHPRF-42" target="c7kN_f7Wii7WWQJMHPRF-38">
          <mxGeometry relative="1" as="geometry" />
        </mxCell>
        <mxCell id="c7kN_f7Wii7WWQJMHPRF-50" value="cycled BW image" style="shape=parallelogram;perimeter=parallelogramPerimeter;whiteSpace=wrap;html=1;fixedSize=1;container=0;" vertex="1" parent="c7kN_f7Wii7WWQJMHPRF-30">
          <mxGeometry x="63.92496932515314" y="278.63" width="133.71" height="28.87" as="geometry" />
        </mxCell>
        <mxCell id="c7kN_f7Wii7WWQJMHPRF-51" value="cycled CLR image" style="shape=parallelogram;perimeter=parallelogramPerimeter;whiteSpace=wrap;html=1;fixedSize=1;container=0;" vertex="1" parent="c7kN_f7Wii7WWQJMHPRF-30">
          <mxGeometry x="272.00496932515307" y="278.63" width="133.71" height="28.87" as="geometry" />
        </mxCell>
        <mxCell id="c7kN_f7Wii7WWQJMHPRF-52" value="L1 loss" style="rounded=0;whiteSpace=wrap;html=1;container=0;" vertex="1" parent="c7kN_f7Wii7WWQJMHPRF-30">
          <mxGeometry x="278.60000000000014" y="343.5" width="96.63" height="37" as="geometry" />
        </mxCell>
        <mxCell id="c7kN_f7Wii7WWQJMHPRF-53" style="edgeStyle=orthogonalEdgeStyle;rounded=0;orthogonalLoop=1;jettySize=auto;html=1;exitX=0.5;exitY=1;exitDx=0;exitDy=0;entryX=0.345;entryY=-0.055;entryDx=0;entryDy=0;entryPerimeter=0;" edge="1" parent="c7kN_f7Wii7WWQJMHPRF-30" source="c7kN_f7Wii7WWQJMHPRF-50" target="c7kN_f7Wii7WWQJMHPRF-39">
          <mxGeometry relative="1" as="geometry" />
        </mxCell>
        <mxCell id="c7kN_f7Wii7WWQJMHPRF-54" style="edgeStyle=orthogonalEdgeStyle;rounded=0;orthogonalLoop=1;jettySize=auto;html=1;exitX=0.5;exitY=1;exitDx=0;exitDy=0;entryX=0.625;entryY=0;entryDx=0;entryDy=0;entryPerimeter=0;" edge="1" parent="c7kN_f7Wii7WWQJMHPRF-30" source="c7kN_f7Wii7WWQJMHPRF-51" target="c7kN_f7Wii7WWQJMHPRF-52">
          <mxGeometry relative="1" as="geometry" />
        </mxCell>
        <mxCell id="c7kN_f7Wii7WWQJMHPRF-84" style="edgeStyle=orthogonalEdgeStyle;rounded=0;orthogonalLoop=1;jettySize=auto;html=1;exitX=0.5;exitY=1;exitDx=0;exitDy=0;entryX=0.75;entryY=1;entryDx=0;entryDy=0;" edge="1" parent="c7kN_f7Wii7WWQJMHPRF-80" source="c7kN_f7Wii7WWQJMHPRF-71" target="c7kN_f7Wii7WWQJMHPRF-2">
          <mxGeometry relative="1" as="geometry">
            <Array as="points">
              <mxPoint x="395" y="1331" />
              <mxPoint x="614" y="1331" />
              <mxPoint x="614" y="992" />
              <mxPoint x="340" y="992" />
            </Array>
          </mxGeometry>
        </mxCell>
        <mxCell id="c7kN_f7Wii7WWQJMHPRF-85" style="edgeStyle=orthogonalEdgeStyle;rounded=0;orthogonalLoop=1;jettySize=auto;html=1;exitX=0.5;exitY=1;exitDx=0;exitDy=0;entryX=1;entryY=0.25;entryDx=0;entryDy=0;" edge="1" parent="c7kN_f7Wii7WWQJMHPRF-80" source="c7kN_f7Wii7WWQJMHPRF-39" target="c7kN_f7Wii7WWQJMHPRF-2">
          <mxGeometry relative="1" as="geometry">
            <Array as="points">
              <mxPoint x="687" y="945" />
              <mxPoint x="457" y="945" />
              <mxPoint x="457" y="826" />
            </Array>
          </mxGeometry>
        </mxCell>
        <mxCell id="c7kN_f7Wii7WWQJMHPRF-86" style="edgeStyle=orthogonalEdgeStyle;rounded=0;orthogonalLoop=1;jettySize=auto;html=1;exitX=0.5;exitY=1;exitDx=0;exitDy=0;entryX=1;entryY=0.75;entryDx=0;entryDy=0;" edge="1" parent="c7kN_f7Wii7WWQJMHPRF-80" source="c7kN_f7Wii7WWQJMHPRF-52" target="c7kN_f7Wii7WWQJMHPRF-2">
          <mxGeometry relative="1" as="geometry">
            <Array as="points">
              <mxPoint x="862" y="973" />
              <mxPoint x="370" y="973" />
            </Array>
          </mxGeometry>
        </mxCell>
      </root>
    </mxGraphModel>
  </diagram>
</mxfile>
